<?xml version="1.0" encoding="UTF-8" standalone="no"?>
<!DOCTYPE svg PUBLIC "-//W3C//DTD SVG 1.1//EN" "http://www.w3.org/Graphics/SVG/1.1/DTD/svg11.dtd">
<svg xmlns="http://www.w3.org/2000/svg" version="1.1" viewBox="0 0 800 800">
<path fill="#853734" d="
  M 242.62 87.46
  Q 281.38 87.79 316.50 75.75
  Q 322.76 73.61 327.50 73.60
  Q 402.25 73.50 477.00 73.50
  Q 478.13 73.50 480.68 74.07
  Q 482.21 74.41 484.27 75.11
  Q 520.31 87.36 555.50 87.50
  Q 564.59 87.54 577.33 86.05
  Q 587.19 84.91 597.07 82.83
  Q 642.10 73.35 683.26 52.47
  Q 701.54 43.20 719.07 32.58
  Q 720.73 31.57 722.48 30.76
  Q 724.57 29.79 726.18 30.05
  Q 729.32 30.53 730.31 33.94
  Q 746.48 89.45 744.85 148.13
  Q 744.80 149.79 744.42 154.34
  Q 744.16 157.45 744.18 160.57
  Q 744.19 162.57 743.81 165.90
  Q 743.54 168.19 743.50 171.25
  Q 743.41 177.85 741.34 197.31
  Q 740.29 207.18 738.59 217.11
  Q 734.08 243.49 730.44 259.44
  Q 729.84 262.05 727.46 262.03
  Q 726.18 262.02 724.28 260.81
  Q 680.72 232.96 631.77 216.57
  Q 621.06 212.98 612.59 210.92
  Q 572.81 201.25 532.50 207.25
  Q 502.03 211.79 471.98 223.06
  Q 466.80 225.01 464.95 227.35
  Q 462.36 230.62 462.00 235.75
  Q 459.70 268.25 457.53 300.75
  A 1.49 1.43 68.0 0 1 457.18 301.62
  Q 446.80 313.55 436.27 325.34
  Q 430.69 331.58 428.40 336.03
  Q 417.17 357.88 433.35 379.65
  A 1.31 1.28 47.6 0 1 433.29 381.26
  L 402.28 416.96
  A 1.00 1.00 -90.0 0 1 400.78 416.96
  L 369.47 380.96
  A 0.81 0.81 -46.8 0 1 369.44 379.93
  Q 386.16 358.62 374.56 336.03
  Q 372.23 331.49 366.77 325.35
  Q 356.13 313.41 345.52 301.43
  A 1.50 1.47 -68.6 0 1 345.15 300.56
  Q 344.95 297.52 344.61 294.50
  Q 344.24 291.15 344.13 288.47
  Q 343.53 274.00 342.28 259.57
  Q 342.01 256.40 341.58 247.90
  Q 341.33 243.08 340.76 238.27
  Q 340.74 238.16 340.46 234.23
  Q 340.00 227.85 335.18 224.83
  Q 334.11 224.16 325.86 221.22
  Q 298.07 211.29 268.91 207.03
  Q 259.23 205.62 249.01 205.25
  Q 235.83 204.77 224.94 205.44
  Q 214.25 206.09 202.23 208.37
  Q 193.01 210.11 182.79 213.08
  Q 156.52 220.72 128.94 233.44
  Q 101.71 245.99 80.70 259.65
  Q 80.64 259.69 79.47 260.53
  Q 77.84 261.69 75.96 261.97
  Q 73.33 262.36 72.75 259.76
  Q 67.32 235.36 63.38 210.69
  Q 62.04 202.31 61.22 192.74
  Q 60.46 183.72 59.72 174.69
  Q 59.71 174.60 59.53 169.30
  Q 59.46 167.35 59.14 165.41
  Q 58.79 163.32 58.82 161.54
  Q 58.90 158.26 58.62 154.99
  Q 58.18 149.97 58.14 148.48
  Q 56.41 89.05 72.69 33.94
  Q 73.92 29.78 77.52 29.96
  Q 79.28 30.05 82.57 31.91
  Q 93.42 38.04 104.25 44.20
  Q 149.73 70.05 200.76 81.72
  Q 215.27 85.04 230.07 86.50
  Q 230.40 86.53 235.45 86.70
  Q 237.26 86.76 239.05 87.07
  Q 241.23 87.45 242.62 87.46
  Z"
/>
<path fill="#853734" d="
  M 334.24 378.93
  Q 335.40 380.94 338.69 384.81
  Q 371.60 423.60 399.56 454.44
  Q 410.91 466.95 425.61 479.13
  Q 447.43 497.22 469.53 514.96
  Q 487.50 529.38 504.83 544.57
  Q 516.15 554.49 519.80 557.81
  Q 536.41 572.89 551.02 589.89
  Q 557.03 596.88 563.15 605.76
  Q 583.43 635.22 601.41 666.15
  Q 607.09 675.92 608.08 680.99
  Q 610.71 694.56 598.46 704.46
  Q 581.26 718.35 577.94 720.69
  Q 575.37 722.49 571.45 722.87
  Q 567.96 723.20 564.80 722.09
  Q 558.46 719.84 555.38 713.62
  Q 553.92 710.67 553.86 710.56
  Q 536.48 679.00 515.47 649.76
  Q 511.86 644.74 503.73 633.57
  Q 482.12 603.86 460.56 579.94
  Q 436.06 552.75 408.94 530.06
  Q 402.01 524.27 374.06 501.19
  Q 359.98 489.56 344.65 472.85
  Q 314.21 439.66 296.56 418.69
  Q 293.09 414.56 289.82 417.96
  Q 288.56 419.26 288.49 419.34
  Q 262.74 443.18 248.44 458.69
  Q 225.17 483.91 206.44 517.69
  Q 205.07 520.16 202.49 519.54
  Q 201.24 519.24 199.14 517.62
  Q 154.66 483.25 122.17 437.37
  Q 110.11 420.34 100.56 399.19
  Q 98.60 394.83 102.77 393.14
  Q 112.10 389.36 121.39 385.50
  Q 172.76 364.14 217.20 330.68
  Q 219.71 328.79 217.77 326.32
  Q 216.42 324.59 214.72 322.54
  Q 209.18 315.84 212.89 310.39
  Q 213.88 308.94 220.84 303.36
  Q 229.32 296.55 237.77 289.72
  Q 243.33 285.23 244.54 284.66
  Q 249.02 282.55 253.65 285.32
  Q 255.10 286.19 256.78 288.26
  Q 258.15 289.96 259.60 291.60
  Q 261.90 294.19 262.02 294.28
  Q 263.21 295.13 264.80 294.76
  Q 265.76 294.54 267.14 293.49
  Q 271.37 290.27 275.56 286.98
  Q 281.07 282.65 284.28 281.87
  Q 291.66 280.06 297.69 286.81
  Q 323.57 315.80 349.38 344.86
  Q 355.19 351.41 352.44 358.43
  Q 351.24 361.48 346.81 365.57
  Q 342.67 369.41 338.50 373.20
  Q 338.42 373.28 336.79 374.57
  Q 335.05 375.95 334.18 378.04
  A 1.01 1.01 -48.9 0 0 334.24 378.93
  Z"
/>
<path fill="#853734" d="
  M 519.69 424.06
  Q 517.70 422.14 512.75 417.73
  Q 511.09 416.25 509.70 416.35
  Q 508.06 416.46 506.98 417.92
  Q 506.11 419.09 506.06 419.14
  Q 483.05 445.81 459.14 472.00
  A 1.05 1.04 40.5 0 1 457.71 472.11
  Q 447.22 463.55 436.84 454.65
  Q 428.24 447.28 419.75 438.05
  A 1.28 1.27 -45.9 0 1 419.73 436.34
  Q 443.76 408.87 467.94 380.69
  Q 469.96 378.33 467.48 376.03
  Q 461.77 370.77 456.09 365.48
  Q 451.55 361.26 450.43 358.26
  Q 448.83 353.96 450.55 349.65
  Q 451.51 347.25 455.29 342.97
  Q 487.51 306.48 506.19 285.94
  Q 511.25 280.37 517.88 281.62
  Q 521.07 282.21 525.84 285.79
  Q 534.22 292.05 535.94 293.56
  Q 537.74 295.14 539.66 294.75
  Q 540.96 294.48 542.47 292.69
  Q 544.58 290.19 546.66 287.66
  Q 550.35 283.17 555.23 283.80
  Q 558.06 284.17 562.47 287.63
  Q 572.40 295.43 582.22 303.37
  Q 589.14 308.97 590.08 310.33
  Q 593.75 315.68 588.33 322.34
  Q 587.15 323.80 586.01 325.28
  Q 584.59 327.12 584.61 328.41
  Q 584.63 330.13 586.30 331.21
  Q 587.46 331.95 587.52 331.99
  Q 612.64 350.56 635.56 363.19
  Q 663.70 378.70 698.40 392.25
  Q 698.49 392.29 700.00 392.76
  Q 702.19 393.44 702.91 395.44
  Q 703.42 396.87 702.53 398.95
  Q 695.70 414.81 686.32 429.32
  Q 674.81 447.14 660.98 463.23
  Q 635.92 492.38 605.71 516.11
  Q 602.06 518.97 601.63 519.19
  Q 598.35 520.83 596.06 516.69
  Q 577.11 482.27 551.06 454.94
  Q 543.49 446.99 519.69 424.06
  Z"
/>
<path fill="#853734" d="
  M 296.83 545.56
  Q 318.83 526.48 341.78 508.36
  A 1.12 1.12 46.9 0 1 343.22 508.41
  Q 361.82 525.28 380.92 540.27
  A 0.74 0.73 42.8 0 1 380.97 541.39
  Q 374.41 547.43 367.83 553.63
  Q 360.89 560.17 355.11 566.30
  Q 322.08 601.29 294.17 640.51
  Q 285.77 652.32 282.60 656.81
  Q 264.19 682.92 248.94 711.01
  Q 245.52 717.32 242.83 719.54
  Q 236.97 724.38 229.33 722.31
  Q 225.96 721.40 221.46 717.90
  Q 215.52 713.27 209.64 708.56
  Q 201.55 702.07 200.02 700.24
  Q 195.83 695.22 194.72 688.26
  Q 193.98 683.63 195.07 679.25
  Q 195.78 676.40 198.76 671.21
  Q 218.80 636.25 239.19 606.44
  Q 248.79 592.40 262.20 578.45
  Q 278.76 561.21 296.83 545.56
  Z"
/>
<path fill="#853734" d="
  M 396.34 562.44
  Q 398.32 560.51 401.04 558.59
  A 1.08 1.07 47.9 0 1 402.37 558.66
  Q 428.89 582.21 451.41 608.94
  Q 451.50 609.04 452.55 610.09
  Q 453.99 611.55 453.89 613.66
  Q 453.80 615.76 453.80 615.85
  Q 454.13 623.07 454.22 630.29
  Q 454.32 638.38 454.62 644.71
  Q 455.24 658.16 455.44 671.63
  Q 455.49 675.17 456.00 681.84
  Q 456.39 686.95 456.33 692.08
  Q 456.30 694.61 456.62 698.39
  Q 456.89 701.56 456.74 704.75
  Q 456.60 707.78 456.87 710.78
  Q 457.34 715.87 457.38 716.75
  Q 457.76 726.21 457.94 735.68
  Q 457.97 737.69 458.64 743.26
  Q 459.17 747.60 458.44 750.94
  Q 456.69 758.95 450.19 762.44
  Q 447.71 763.77 443.71 764.81
  Q 437.95 766.31 437.83 766.35
  Q 421.11 771.19 415.75 772.50
  Q 407.63 774.48 398.71 774.11
  Q 392.42 773.84 382.00 771.16
  Q 363.85 766.50 355.00 763.50
  Q 348.80 761.40 346.02 756.00
  Q 344.13 752.35 344.14 745.20
  Q 344.16 740.28 344.53 735.39
  Q 344.99 729.46 345.05 725.60
  Q 345.20 716.43 345.75 707.28
  Q 346.04 702.53 346.15 697.85
  Q 346.26 693.13 346.47 688.42
  Q 346.52 687.37 346.67 677.59
  Q 346.73 673.96 347.08 670.34
  Q 347.46 666.37 347.47 663.13
  Q 347.48 656.07 348.00 646.50
  Q 348.56 636.18 348.74 616.17
  Q 348.74 616.13 348.63 614.33
  Q 348.49 611.97 350.10 610.38
  Q 351.58 608.92 351.64 608.84
  Q 371.08 585.68 393.42 565.31
  Q 393.46 565.28 396.34 562.44
  Z"
/>
</svg>
